<svg width="111" height="116" viewBox="0 0 111 116" fill="none" xmlns="http://www.w3.org/2000/svg">
<path d="M23.0041 9.37804L40.6532 33.0553C41.7488 34.5251 40.9423 36.6351 39.1457 36.9995L14.4681 42.0051C12.6715 42.3695 11.1067 40.7404 11.543 38.9599L18.5715 10.2771C19.0747 8.2239 21.7407 7.68313 23.0041 9.37804Z" fill="black" stroke="#EBFF00"/>
<path d="M26.0303 22.9275L26.0366 22.946L26.0443 22.964L31.8163 36.3883C32.4888 37.9523 31.4354 39.7163 29.7396 39.8661L19.1415 40.8025C17.5179 40.9459 16.1934 39.5223 16.4535 37.9132L20.3799 13.623C20.6021 12.2488 22.5625 12.2029 22.8487 13.5652L22.8549 13.5948L22.8647 13.6235L26.0303 22.9275Z" fill="black" stroke="#EBFF00"/>
<circle cx="50" cy="67" r="48.5" fill="black" stroke="#EBFF00"/>
<path d="M95.3184 16.1585L90.462 44.1651C90.1468 45.9827 88.0388 46.8446 86.5404 45.7685L66.2129 31.1699C64.7077 30.0889 64.8606 27.8034 66.4963 26.9325L91.6803 13.5247C93.5165 12.5471 95.6738 14.1089 95.3184 16.1585Z" fill="black" stroke="#EBFF00"/>
<path d="M88.3454 25.6307L86.6525 36.654C86.3678 38.5082 84.2181 39.3999 82.7045 38.2916L74.3188 32.1514C72.7982 31.0379 73.0096 28.7062 74.7057 27.8845L84.7843 23.0014C86.5971 22.1231 88.6512 23.6397 88.3454 25.6307Z" fill="black" stroke="#EBFF00"/>
<rect x="64.676" y="26" width="29.61" height="10.7732" transform="rotate(38.2928 64.676 26)" fill="black"/>
<path d="M37.6195 80C38.6097 94.1074 25.4675 94.0375 23.2091 93.8416" stroke="#EBFF00"/>
<path d="M38 80C40 94 52.8333 91.1667 55 90.5" stroke="#EBFF00"/>
<path d="M43.5 76.5883C43.5 79.6258 41.0376 82.0883 38 82.0883C34.9624 82.0883 32.5 79.6258 32.5 76.5883C32.5 75.82 32.6567 75.3756 32.8659 75.107C33.0698 74.8452 33.3802 74.6782 33.8526 74.5865C34.3345 74.4929 34.9305 74.4881 35.6475 74.5126C35.8577 74.5198 36.0787 74.5295 36.3079 74.5396C36.839 74.563 37.4139 74.5883 38 74.5883C38.5861 74.5883 39.161 74.563 39.6921 74.5396C39.9213 74.5295 40.1423 74.5198 40.3525 74.5126C41.0695 74.4881 41.6655 74.4929 42.1474 74.5865C42.6198 74.6782 42.9302 74.8452 43.1341 75.107C43.3433 75.3756 43.5 75.82 43.5 76.5883Z" fill="black" stroke="#EBFF00"/>
<path d="M36.4871 87.9373C36.5581 87.9373 36.6056 87.9511 36.6734 87.9715C36.972 88.0616 37.2901 88.1006 37.601 88.1084C37.7714 88.1127 37.947 88.1027 38.1142 88.0723C38.3765 88.0246 38.6381 87.9756 38.8993 87.9354C39.11 87.903 39.3736 87.8545 39.5741 87.7928C39.7752 87.731 39.9596 87.6238 40.1481 87.5609" stroke="#EBFF00" stroke-linecap="round"/>
<path d="M38.1294 83.2498C37.9538 83.547 37.8749 83.9324 37.8291 84.2687C37.7574 84.7953 37.7223 85.3338 37.7188 85.8654C37.7169 86.1696 37.7771 86.5325 37.6846 86.8272C37.6294 87.0031 37.5422 87.0166 37.3691 87.0743C37.3014 87.0969 37.1719 87.2468 37.2132 87.3328C37.245 87.399 37.6418 87.3792 37.6998 87.3823C37.8367 87.3896 37.9735 87.3899 38.1104 87.3899C38.5101 87.3899 38.8098 87.3199 39.1521 87.1199C39.3464 87.0064 39.5773 86.9793 39.7984 86.9793C39.838 86.9793 39.8645 86.9955 39.8402 86.9641C39.7558 86.8549 39.7124 86.6655 39.671 86.5345C39.5526 86.1594 39.4573 85.7356 39.2414 85.4035C39.1225 85.2205 39.0461 85.0493 38.9639 84.8503C38.8279 84.5212 38.685 84.214 38.4583 83.9379C38.4324 83.9064 38.3905 83.8083 38.3765 83.8467C38.2952 84.0704 38.3027 84.5034 38.2834 84.7116C38.2393 85.1876 38.1949 85.6544 38.2511 86.1315C38.2935 86.4914 38.3779 86.8459 38.4241 87.2055C38.4301 87.2528 38.4324 87.3006 38.4374 87.348C38.4422 87.3946 38.4458 87.357 38.4526 87.3138C38.4807 87.1344 38.4949 86.9535 38.502 86.7721C38.515 86.4383 38.5018 86.1504 38.6274 85.8312C38.7082 85.626 38.78 85.378 38.8365 85.7171C38.8756 85.9516 38.9168 86.1858 38.9544 86.4204C38.9676 86.5029 38.9667 86.6504 39.0076 86.7322C39.0652 86.8473 39.4172 86.9576 39.5456 86.9774C39.7024 87.0015 39.7463 87.1676 39.8744 87.253" stroke="#EBFF00" stroke-linecap="round"/>
<path d="M29.5 56C29.5 59.0376 27.0376 61.5 24 61.5C20.9624 61.5 18.5 59.0376 18.5 56C18.5 55.6119 18.5404 55.3653 18.5934 55.215C18.6424 55.0762 18.6892 55.0523 18.699 55.0473L18.6992 55.0472C18.7212 55.0359 18.7879 55.0139 18.9505 55.0383C19.1122 55.0625 19.3177 55.1248 19.5791 55.2245C19.7965 55.3075 20.0313 55.4077 20.2928 55.5195C20.344 55.5413 20.3962 55.5636 20.4495 55.5863C20.7701 55.7228 21.122 55.8699 21.4949 56.0044C22.2395 56.2729 23.0902 56.5 24 56.5C24.9098 56.5 25.7605 56.2729 26.5051 56.0044C26.878 55.8699 27.2299 55.7228 27.5505 55.5863C27.6038 55.5636 27.656 55.5413 27.7072 55.5195C27.9687 55.4077 28.2035 55.3075 28.4209 55.2245C28.6823 55.1248 28.8878 55.0625 29.0495 55.0383C29.2121 55.0139 29.2788 55.0359 29.3008 55.0472L29.301 55.0473C29.3108 55.0523 29.3576 55.0762 29.4066 55.215C29.4596 55.3653 29.5 55.6119 29.5 56Z" fill="black" stroke="#EBFF00"/>
<circle cx="52" cy="56" r="5.5" fill="black" stroke="#EBFF00"/>
<line x1="51.7773" y1="75.1692" x2="71.1038" y2="65.5524" stroke="#EBFF00"/>
<line x1="51.9536" y1="75.5073" x2="73.4473" y2="73.5022" stroke="#EBFF00"/>
<line x1="52.3185" y1="75.3889" x2="73.3271" y2="80.3523" stroke="#EBFF00"/>
</svg>
